<?xml version="1.0" standalone="no"?>
<!DOCTYPE svg PUBLIC "-//W3C//DTD SVG 20010904//EN"
 "http://www.w3.org/TR/2001/REC-SVG-20010904/DTD/svg10.dtd">
<svg version="1.0" xmlns="http://www.w3.org/2000/svg"
 width="512.000000pt" height="512.000000pt" viewBox="0 0 512.000000 512.000000"
 preserveAspectRatio="xMidYMid meet">

<g transform="translate(0.000000,512.000000) scale(0.100000,-0.100000)"
fill="#000000" stroke="none">
<path d="M390 5104 c-30 -8 -79 -27 -110 -42 -71 -35 -187 -151 -222 -222 -62
-126 -58 27 -58 -2280 0 -2307 -4 -2154 58 -2280 35 -71 151 -187 222 -222
126 -62 -27 -58 2280 -58 2307 0 2154 -4 2280 58 71 35 187 151 222 222 62
126 58 -27 58 2280 0 2307 4 2154 -58 2280 -35 71 -151 187 -222 222 -126 62
28 58 -2285 57 -1824 0 -2117 -2 -2165 -15z m3089 -1195 c83 -20 184 -75 253
-138 l66 -61 73 19 c73 19 168 54 283 106 32 14 60 24 63 22 8 -8 -45 -125
-78 -174 -18 -26 -68 -82 -111 -124 l-78 -76 105 24 c57 12 135 34 172 48 37
13 69 23 71 21 2 -2 -4 -21 -13 -42 -26 -62 -109 -155 -221 -245 -42 -34 -42
-34 -48 -119 -42 -587 -220 -1032 -550 -1378 -201 -210 -410 -350 -673 -451
-377 -146 -850 -179 -1193 -85 -149 41 -377 139 -526 225 l-41 24 151 0 c104
0 179 6 241 18 195 40 390 119 521 212 66 48 73 65 25 65 -50 0 -185 41 -253
77 -78 41 -158 107 -213 177 -37 47 -115 190 -115 211 0 6 35 9 96 7 52 -2
112 -1 132 3 l37 7 -35 13 c-56 20 -160 74 -221 116 -144 97 -241 278 -264
488 -7 60 -6 64 11 56 56 -24 155 -53 200 -58 l51 -6 -67 67 c-126 126 -200
325 -200 537 0 115 14 191 50 273 l20 44 122 -116 c317 -304 618 -472 995
-555 97 -21 281 -46 288 -39 3 3 0 31 -6 64 -6 32 -9 97 -6 144 20 310 286
567 637 613 51 7 195 -1 249 -14z"/>
</g>
</svg>
