<?xml version="1.0" standalone="no"?>
<!DOCTYPE svg PUBLIC "-//W3C//DTD SVG 20010904//EN"
 "http://www.w3.org/TR/2001/REC-SVG-20010904/DTD/svg10.dtd">
<svg version="1.0" xmlns="http://www.w3.org/2000/svg"
 width="90.000000pt" height="90.000000pt" viewBox="0 0 90.000000 90.000000"
 preserveAspectRatio="xMidYMid meet">

<g transform="translate(0.000000,90.000000) scale(0.100000,-0.100000)"
fill="#000000" stroke="none">
<path d="M140 760 c-19 -19 -20 -33 -20 -310 0 -277 1 -291 20 -310 18 -18 33
-20 180 -20 l160 0 0 135 0 135 -45 0 -45 0 0 45 0 45 45 0 45 0 0 43 c0 52
27 108 60 124 14 7 48 12 75 11 l50 -3 3 -42 3 -43 -38 0 c-48 0 -63 -14 -63
-57 0 -32 1 -33 45 -33 43 0 45 -1 45 -29 0 -50 -9 -61 -51 -61 l-39 0 0 -135
0 -135 85 0 c132 0 125 -20 125 330 0 277 -1 291 -20 310 -19 19 -33 20 -310
20 -277 0 -291 -1 -310 -20z"/>
</g>
</svg>
