<?xml version="1.0" standalone="no"?>
<!DOCTYPE svg PUBLIC "-//W3C//DTD SVG 20010904//EN"
 "http://www.w3.org/TR/2001/REC-SVG-20010904/DTD/svg10.dtd">
<svg version="1.0" xmlns="http://www.w3.org/2000/svg"
 width="400.000000pt" height="400.000000pt" viewBox="0 0 400.000000 400.000000"
 preserveAspectRatio="xMidYMid meet">

<g transform="translate(0.000000,400.000000) scale(0.100000,-0.100000)"
fill="#000000" stroke="none">
<path d="M427 3819 c-91 -21 -184 -98 -228 -186 l-24 -48 0 -1560 0 -1560 24
-48 c32 -65 104 -135 171 -166 l55 -26 1545 0 1545 0 55 26 c67 31 139 101
171 166 l24 48 0 1560 0 1560 -24 48 c-32 65 -104 135 -171 166 l-55 26 -1525
2 c-869 0 -1541 -3 -1563 -8z m2308 -582 c220 -78 391 -249 461 -463 l29 -89
0 -660 0 -660 -29 -89 c-70 -214 -241 -385 -461 -463 l-80 -28 -685 0 -685 0
-80 28 c-220 78 -391 249 -461 463 l-29 89 0 660 0 660 29 89 c51 155 156 291
293 380 81 52 124 71 218 96 66 18 112 19 735 17 l665 -2 80 -28z"/>
<path d="M1444 3069 c-144 -17 -268 -82 -374 -196 -75 -79 -133 -194 -150
-291 -7 -46 -10 -236 -8 -602 3 -525 4 -536 26 -602 48 -144 173 -287 307
-353 131 -65 132 -65 725 -65 593 0 594 0 725 65 134 66 259 209 307 353 22
66 23 77 26 602 2 366 -1 556 -8 602 -7 39 -29 103 -52 150 -51 106 -169 226
-268 275 -136 66 -134 66 -685 69 -275 1 -532 -2 -571 -7z m1284 -315 c19 -20
32 -44 32 -60 0 -107 -128 -162 -194 -83 -49 58 -30 145 38 175 44 19 86 8
124 -32z m-587 -79 c138 -35 279 -125 364 -233 55 -68 128 -215 146 -292 17
-71 17 -240 0 -310 -34 -140 -131 -297 -238 -385 -132 -108 -272 -158 -448
-159 -184 0 -341 58 -469 175 -314 288 -315 759 -2 1046 171 157 417 217 647
158z"/>
<path d="M1876 2459 c-184 -30 -349 -204 -378 -397 -45 -308 230 -582 537
-533 231 37 395 231 395 466 0 226 -150 414 -367 460 -75 16 -113 17 -187 4z"/>
</g>
</svg>
