<?xml version="1.0" standalone="no"?>
<!DOCTYPE svg PUBLIC "-//W3C//DTD SVG 20010904//EN"
 "http://www.w3.org/TR/2001/REC-SVG-20010904/DTD/svg10.dtd">
<svg version="1.0" xmlns="http://www.w3.org/2000/svg"
 width="452.000000pt" height="452.000000pt" viewBox="0 0 452.000000 452.000000"
 preserveAspectRatio="xMidYMid meet">

<g transform="translate(0.000000,452.000000) scale(0.100000,-0.100000)"
fill="#000000" stroke="none">
<path d="M695 4505 c-270 -51 -495 -224 -610 -470 -87 -183 -79 -30 -83 -1725
-2 -1058 0 -1528 8 -1582 53 -371 347 -665 718 -718 54 -8 524 -10 1582 -8
1690 4 1541 -3 1719 79 255 118 436 359 481 639 14 89 14 2991 0 3080 -45 280
-226 521 -481 639 -178 82 -25 75 -1739 78 -1235 1 -1538 -1 -1595 -12z m446
-749 c208 -49 324 -267 249 -469 -89 -239 -452 -305 -640 -117 -75 74 -95 127
-95 245 0 81 4 109 22 147 73 159 268 241 464 194z m2144 -961 c108 -31 182
-70 258 -133 106 -89 185 -212 232 -362 52 -167 55 -218 55 -948 l0 -672 -352
2 -353 3 -5 665 c-5 512 -9 674 -19 705 -37 111 -101 190 -177 216 -22 8 -77
14 -124 14 -71 0 -94 -4 -141 -26 -99 -47 -174 -141 -204 -255 -13 -49 -15
-159 -15 -691 l0 -633 -355 0 -355 0 -2 1025 c-1 564 -2 1037 -2 1053 l-1 27
355 0 355 0 5 -144 5 -145 50 69 c102 139 247 226 430 256 91 15 261 2 360
-26z m-1892 -607 c4 -331 7 -805 7 -1055 l0 -453 -348 0 -349 0 -6 152 c-9
199 -9 1943 0 1951 3 4 160 7 348 7 l342 0 6 -602z"/>
</g>
</svg>
